# xmcd CD database file
#
# Track frame offsets:
#	150
#	19065
#	47515
#	63630
#
# Disc length: 1097 seconds
#
# Revision: 0
# Processed by: cddbd v1.5.1PL0 Copyright (c) Steve Scherf et al.
# Submitted via: CDex 1.51
#
DISCID=2d044704
DTITLE=松平健 - マツケンサンバII “オーレ！E.P.”
DYEAR=2004
DGENRE=JPop
TTITLE0=マツケンサンバII（ショートバージョン）
TTITLE1=マツケンサンバII（READYMADE SHOGUN MIX 2004）
TTITLE2=マツケンマンボ
TTITLE3=マツケンサンバII（ショートバージョン・オリジナルカラオケ）
EXTD=YEAR: 2004/08/11
EXTT0=
EXTT1=
EXTT2=
EXTT3=
PLAYORDER=
